<svg width="28" height="28" viewBox="0 0 28 28" fill="none" xmlns="http://www.w3.org/2000/svg">
<path d="M24.4382 9.68918C24.4265 8.80557 24.2611 7.93075 23.9494 7.10384C23.6792 6.40635 23.2664 5.77291 22.7374 5.24398C22.2085 4.71505 21.5751 4.30227 20.8776 4.03201C20.0613 3.72559 19.199 3.55991 18.3272 3.54201C17.2049 3.49184 16.8491 3.47784 14.0001 3.47784C11.1511 3.47784 10.7859 3.47784 9.67175 3.54201C8.80043 3.56004 7.93849 3.72572 7.12258 4.03201C6.42498 4.30208 5.79144 4.7148 5.26249 5.24375C4.73353 5.7727 4.32082 6.40625 4.05075 7.10384C3.74372 7.9195 3.57839 8.78164 3.56192 9.65301C3.51175 10.7765 3.49658 11.1323 3.49658 13.9813C3.49658 16.8303 3.49658 17.1943 3.56192 18.3097C3.57942 19.1823 3.74392 20.0433 4.05075 20.8612C4.32127 21.5586 4.73429 22.1919 5.26342 22.7206C5.79255 23.2493 6.42616 23.6619 7.12375 23.9318C7.93742 24.2506 8.79952 24.4281 9.67292 24.4568C10.7964 24.507 11.1522 24.5222 14.0012 24.5222C16.8502 24.5222 17.2154 24.5222 18.3296 24.4568C19.2013 24.4397 20.0637 24.2744 20.8799 23.968C21.5772 23.6974 22.2105 23.2845 22.7394 22.7557C23.2683 22.2268 23.6812 21.5935 23.9517 20.8962C24.2586 20.0795 24.4231 19.2185 24.4406 18.3447C24.4907 17.2223 24.5059 16.8665 24.5059 14.0163C24.5036 11.1673 24.5036 10.8057 24.4382 9.68918ZM13.9931 19.369C11.0134 19.369 8.59958 16.9552 8.59958 13.9755C8.59958 10.9958 11.0134 8.58201 13.9931 8.58201C15.4235 8.58201 16.7954 9.15025 17.8069 10.1617C18.8183 11.1732 19.3866 12.5451 19.3866 13.9755C19.3866 15.406 18.8183 16.7778 17.8069 17.7893C16.7954 18.8008 15.4235 19.369 13.9931 19.369ZM19.6012 9.64018C19.436 9.64033 19.2724 9.60791 19.1198 9.54476C18.9671 9.48161 18.8284 9.38897 18.7116 9.27216C18.5948 9.15534 18.5022 9.01664 18.439 8.86398C18.3759 8.71132 18.3434 8.54771 18.3436 8.38251C18.3436 8.21743 18.3761 8.05396 18.4393 7.90145C18.5024 7.74893 18.595 7.61035 18.7118 7.49362C18.8285 7.37689 18.9671 7.28429 19.1196 7.22112C19.2721 7.15794 19.4356 7.12543 19.6007 7.12543C19.7657 7.12543 19.9292 7.15794 20.0817 7.22112C20.2342 7.28429 20.3728 7.37689 20.4896 7.49362C20.6063 7.61035 20.6989 7.74893 20.7621 7.90145C20.8252 8.05396 20.8577 8.21743 20.8577 8.38251C20.8577 9.07784 20.2954 9.64018 19.6012 9.64018Z" fill="white"/>
<path d="M13.993 17.479C15.9279 17.479 17.4965 15.9104 17.4965 13.9755C17.4965 12.0406 15.9279 10.472 13.993 10.472C12.0581 10.472 10.4895 12.0406 10.4895 13.9755C10.4895 15.9104 12.0581 17.479 13.993 17.479Z" fill="white"/>
</svg>
