<svg width="28" height="28" viewBox="0 0 28 28" fill="none" xmlns="http://www.w3.org/2000/svg">
<path d="M25.1456 4.66667C25.0396 4.65575 24.9327 4.65575 24.8267 4.66667H3.04894C2.90936 4.66882 2.77071 4.68975 2.63672 4.72889L13.8756 15.9211L25.1456 4.66667Z" fill="white"/>
<path d="M26.2968 5.74777L14.9723 17.0255C14.6809 17.3153 14.2866 17.4779 13.8757 17.4779C13.4647 17.4779 13.0705 17.3153 12.779 17.0255L1.55567 5.83333C1.52116 5.96014 1.50287 6.09081 1.50122 6.22222V21.7778C1.50122 22.1903 1.66511 22.586 1.95683 22.8777C2.24856 23.1694 2.64422 23.3333 3.05678 23.3333H24.8346C25.2471 23.3333 25.6428 23.1694 25.9345 22.8777C26.2262 22.586 26.3901 22.1903 26.3901 21.7778V6.22222C26.3839 6.06017 26.3524 5.90009 26.2968 5.74777ZM4.12233 21.7778H3.04122V20.6655L8.69566 15.0578L9.79233 16.1544L4.12233 21.7778ZM24.819 21.7778H23.7301L18.0601 16.1544L19.1568 15.0578L24.8112 20.6655L24.819 21.7778Z" fill="white"/>
</svg>
